<svg xmlns="http://www.w3.org/2000/svg" viewBox="0 0 512.82 134.62"><defs><style>.cls-1{fill:#fff;}</style></defs><title>Asset 5</title><g id="Layer_2" data-name="Layer 2"><g id="Layer_1-2" data-name="Layer 1"><path class="cls-1" d="M58.36,47.38a14.15,14.15,0,0,0-4.44-3,13.4,13.4,0,0,0-5.42-1.1h-14v28h14a13.56,13.56,0,0,0,5.42-1.09,14.35,14.35,0,0,0,4.44-3,14.06,14.06,0,0,0,3-4.47,14,14,0,0,0,0-10.88A14.06,14.06,0,0,0,58.36,47.38Z"/><path class="cls-1" d="M0,0V134.62H512.82V0ZM74.28,68.15A28.07,28.07,0,0,1,59.36,83.07a27.07,27.07,0,0,1-10.86,2.2h-14v14h-14v-70h28a27.62,27.62,0,0,1,7.42,1,28,28,0,0,1,6.66,2.84A28.25,28.25,0,0,1,72.64,43.18a27.92,27.92,0,0,1,2.83,6.69,28,28,0,0,1-1.19,18.28Zm44.19-7.78H106.7a10.09,10.09,0,0,0-7.18,2.93,9.94,9.94,0,0,0-2.15,3.22,10.09,10.09,0,0,0-.78,4V99.28H83.26V47h3.22l4.4,6.2a23.48,23.48,0,0,1,15.82-6.1h11.77Zm55.86,38.91H171.1l-5.17-7.18a41.92,41.92,0,0,1-4,3.2,29.34,29.34,0,0,1-4.47,2.59,27.09,27.09,0,0,1-4.81,1.73,19.65,19.65,0,0,1-5,.64,28.79,28.79,0,0,1-10.38-1.86,24.59,24.59,0,0,1-8.5-5.39A25.34,25.34,0,0,1,123,84.34a30.58,30.58,0,0,1-2.1-11.67,29.13,29.13,0,0,1,2.1-11.2,26.67,26.67,0,0,1,5.73-8.77,26,26,0,0,1,8.5-5.69,26.71,26.71,0,0,1,10.38-2,20.45,20.45,0,0,1,5,.63,25.65,25.65,0,0,1,4.83,1.76A30.5,30.5,0,0,1,162,50a35.85,35.85,0,0,1,4,3.27l5.17-6.2h3.23Zm46.48-38.91H200.6V75.89A10,10,0,0,0,203.52,83a10.51,10.51,0,0,0,3.23,2.18,9.89,9.89,0,0,0,3.95.8h10.11V99.28H210.7a22.7,22.7,0,0,1-9.08-1.83A23.57,23.57,0,0,1,189.15,85a22.59,22.59,0,0,1-1.84-9.09V60.37h-6.49V47.09h6.49V26.19H200.6v20.9h20.21ZM275,99.28H261.58V69.4h.1a9.78,9.78,0,0,0-.78-3.88,10.09,10.09,0,0,0-5.32-5.35,9.65,9.65,0,0,0-3.86-.78,10,10,0,0,0-9.33,6.13,9.78,9.78,0,0,0-.78,3.88V99.28H228.28V26.19h13.33V49.28a15.63,15.63,0,0,1,4.93-2.56,17.85,17.85,0,0,1,5.18-.76,22.7,22.7,0,0,1,9.08,1.83,23.16,23.16,0,0,1,7.4,5,24.19,24.19,0,0,1,5,7.47A22.92,22.92,0,0,1,275,69.4Zm55.22-6.59A26.39,26.39,0,0,1,328.09,103a26.91,26.91,0,0,1-5.74,8.45,27.43,27.43,0,0,1-8.47,5.71,25.76,25.76,0,0,1-10.36,2.1l-6.83-.1V105.78l7.42.09a11.33,11.33,0,0,0,3.76-.63,12.93,12.93,0,0,0,3.35-1.76,13.38,13.38,0,0,0,2.71-2.66,14.49,14.49,0,0,0,1.9-3.34l-4.47,1.85a11.92,11.92,0,0,1-4.56.93,24.13,24.13,0,0,1-9.09-1.71A22.11,22.11,0,0,1,285.24,86a26.78,26.78,0,0,1-1.83-10.14V47h13.28v28.9a13.52,13.52,0,0,0,.8,4.86,10.12,10.12,0,0,0,2.18,3.47,8.58,8.58,0,0,0,3.2,2.07,11,11,0,0,0,3.93.69,8.36,8.36,0,0,0,3.88-1,11,11,0,0,0,3.2-2.52A12,12,0,0,0,316,80a10.85,10.85,0,0,0,.79-4.08V47h13.42Zm56.21,6.59h-3.23l-4.39-6.1a35.81,35.81,0,0,1-3.44,2.76,26,26,0,0,1-3.84,2.24,23.72,23.72,0,0,1-4.12,1.52,17.07,17.07,0,0,1-4.32.56A24.13,24.13,0,0,1,354,98.55,22.11,22.11,0,0,1,341.54,86a26.78,26.78,0,0,1-1.83-10.14V47H353v28.9a13.16,13.16,0,0,0,.8,4.72A10.51,10.51,0,0,0,356,84.1a9.13,9.13,0,0,0,3.19,2.15,10.73,10.73,0,0,0,3.94.73A8.36,8.36,0,0,0,367,86a11.16,11.16,0,0,0,3.2-2.52A12,12,0,0,0,372.32,80a11,11,0,0,0,.79-4.08V47h13.33Zm54.15-10.13A17.28,17.28,0,0,1,437,94.42a16.37,16.37,0,0,1-11.72,4.86H394.83V86H425.3a3.33,3.33,0,0,0,3.32-3.32,1.81,1.81,0,0,0-1-1.85,5.63,5.63,0,0,0-2.35-.44H411.44a16.07,16.07,0,0,1-6.5-1.32,16.71,16.71,0,0,1-8.81-8.89,16.56,16.56,0,0,1,15.31-23.09h27V60.37h-27a3.33,3.33,0,0,0-3.33,3.32,3.32,3.32,0,0,0,1,2.41,3.15,3.15,0,0,0,2.35,1H425.3a18.17,18.17,0,0,1,6.45,1.15,16.33,16.33,0,0,1,5.27,3.2,15,15,0,0,1,4.88,11.23A16.06,16.06,0,0,1,440.59,89.15Zm55.12,10.13H482.28V69.4h.1a9.78,9.78,0,0,0-.78-3.88,10.09,10.09,0,0,0-5.32-5.35,9.65,9.65,0,0,0-3.86-.78,10,10,0,0,0-9.32,6.13,9.62,9.62,0,0,0-.79,3.88V99.28H449V26.19h13.33V49.28a15.57,15.57,0,0,1,4.94-2.56,17.78,17.78,0,0,1,5.17-.76,22.7,22.7,0,0,1,9.08,1.83,23.05,23.05,0,0,1,7.4,5,24.19,24.19,0,0,1,5,7.47,22.92,22.92,0,0,1,1.83,9.11Z"/><path class="cls-1" d="M157,62.83a14.15,14.15,0,0,0-4.22-3.17,11.43,11.43,0,0,0-5.15-1.2,14.18,14.18,0,0,0-5.15.93,11.66,11.66,0,0,0-4.2,2.73,12.86,12.86,0,0,0-2.81,4.47,18.46,18.46,0,0,0,0,12.16,12.86,12.86,0,0,0,2.81,4.47,11.66,11.66,0,0,0,4.2,2.73,14.18,14.18,0,0,0,5.15.93,11.43,11.43,0,0,0,5.15-1.2A14,14,0,0,0,157,82.51,15.13,15.13,0,0,0,159.85,78a13.9,13.9,0,0,0,0-10.6A15.13,15.13,0,0,0,157,62.83Z"/></g></g></svg>